<svg width="20" height="20" viewBox="0 0 20 20" fill="none" xmlns="http://www.w3.org/2000/svg">
<path d="M7.07941 10.1503C7.07941 11.7901 8.38762 13.1183 10.0027 13.1183C11.6178 13.1183 12.926 11.7901 12.926 10.1503C12.926 8.51052 11.6178 7.18229 10.0027 7.18229C8.38762 7.18229 7.07941 8.51052 7.07941 10.1503ZM10.0027 1.63979C7.93001 1.63979 6.02961 2.41049 4.56528 3.68407L2.28264 3.70593C4.11844 1.44302 6.89637 0 10.0027 0C13.109 0 15.8869 1.44302 17.7174 3.70593L15.4347 3.68407C13.9704 2.41049 12.07 1.63979 9.99731 1.63979H10.0027ZM0.414536 7.29161L1.65276 9.51079C1.63661 9.72397 1.62046 9.93167 1.62046 10.1503C1.62046 13.5174 3.55855 16.4253 6.35801 17.8027L7.63392 20C3.26245 18.9177 0 14.9166 0 10.1503C0 9.15551 0.145359 8.19896 0.409153 7.29161H0.414536ZM18.3849 10.1503C18.3849 9.93714 18.3688 9.72397 18.3526 9.51079L19.5908 7.29161C19.8546 8.19896 20 9.15551 20 10.1503C20 14.9166 16.7429 18.9177 12.3661 20L13.642 17.8027C16.4415 16.4253 18.3795 13.5174 18.3795 10.1503H18.3849Z" fill="white"/>
</svg>
